<svg width="16" height="16" viewBox="0 0 16 16" fill="none" xmlns="http://www.w3.org/2000/svg">
<mask id="mask0_1_161" style="mask-type:alpha" maskUnits="userSpaceOnUse" x="0" y="0" width="16" height="16">
<rect width="16" height="16" fill="#D9D9D9"/>
</mask>
<g mask="url(#mask0_1_161)">
<path d="M10.1666 3.3335C9.93325 3.3335 9.73603 3.25294 9.57492 3.09183C9.41381 2.93072 9.33325 2.7335 9.33325 2.50016C9.33325 2.26683 9.41381 2.06961 9.57492 1.9085C9.73603 1.74738 9.93325 1.66683 10.1666 1.66683C10.3999 1.66683 10.5971 1.74738 10.7583 1.9085C10.9194 2.06961 10.9999 2.26683 10.9999 2.50016C10.9999 2.7335 10.9194 2.93072 10.7583 3.09183C10.5971 3.25294 10.3999 3.3335 10.1666 3.3335ZM10.1666 14.3335C9.93325 14.3335 9.73603 14.2529 9.57492 14.0918C9.41381 13.9307 9.33325 13.7335 9.33325 13.5002C9.33325 13.2668 9.41381 13.0696 9.57492 12.9085C9.73603 12.7474 9.93325 12.6668 10.1666 12.6668C10.3999 12.6668 10.5971 12.7474 10.7583 12.9085C10.9194 13.0696 10.9999 13.2668 10.9999 13.5002C10.9999 13.7335 10.9194 13.9307 10.7583 14.0918C10.5971 14.2529 10.3999 14.3335 10.1666 14.3335ZM12.8333 5.66683C12.5999 5.66683 12.4027 5.58627 12.2416 5.42516C12.0805 5.26405 11.9999 5.06683 11.9999 4.8335C11.9999 4.60016 12.0805 4.40294 12.2416 4.24183C12.4027 4.08072 12.5999 4.00016 12.8333 4.00016C13.0666 4.00016 13.2638 4.08072 13.4249 4.24183C13.586 4.40294 13.6666 4.60016 13.6666 4.8335C13.6666 5.06683 13.586 5.26405 13.4249 5.42516C13.2638 5.58627 13.0666 5.66683 12.8333 5.66683ZM12.8333 12.0002C12.5999 12.0002 12.4027 11.9196 12.2416 11.7585C12.0805 11.5974 11.9999 11.4002 11.9999 11.1668C11.9999 10.9335 12.0805 10.7363 12.2416 10.5752C12.4027 10.4141 12.5999 10.3335 12.8333 10.3335C13.0666 10.3335 13.2638 10.4141 13.4249 10.5752C13.586 10.7363 13.6666 10.9335 13.6666 11.1668C13.6666 11.4002 13.586 11.5974 13.4249 11.7585C13.2638 11.9196 13.0666 12.0002 12.8333 12.0002ZM13.8333 8.8335C13.5999 8.8335 13.4027 8.75294 13.2416 8.59183C13.0805 8.43072 12.9999 8.2335 12.9999 8.00016C12.9999 7.76683 13.0805 7.56961 13.2416 7.4085C13.4027 7.24738 13.5999 7.16683 13.8333 7.16683C14.0666 7.16683 14.2638 7.24738 14.4249 7.4085C14.586 7.56961 14.6666 7.76683 14.6666 8.00016C14.6666 8.2335 14.586 8.43072 14.4249 8.59183C14.2638 8.75294 14.0666 8.8335 13.8333 8.8335ZM7.99992 14.6668C7.0777 14.6668 6.21103 14.4918 5.39992 14.1418C4.58881 13.7918 3.88325 13.3168 3.28325 12.7168C2.68325 12.1168 2.20825 11.4113 1.85825 10.6002C1.50825 9.78905 1.33325 8.92238 1.33325 8.00016C1.33325 7.07794 1.50825 6.21127 1.85825 5.40016C2.20825 4.58905 2.68325 3.8835 3.28325 3.2835C3.88325 2.6835 4.58881 2.2085 5.39992 1.8585C6.21103 1.5085 7.0777 1.3335 7.99992 1.3335V2.66683C6.51103 2.66683 5.24992 3.1835 4.21659 4.21683C3.18325 5.25016 2.66659 6.51127 2.66659 8.00016C2.66659 9.48905 3.18325 10.7502 4.21659 11.7835C5.24992 12.8168 6.51103 13.3335 7.99992 13.3335V14.6668ZM7.99992 9.3335C7.63325 9.3335 7.31936 9.20294 7.05825 8.94183C6.79714 8.68072 6.66658 8.36683 6.66658 8.00016C6.66658 7.94461 6.66936 7.88627 6.67492 7.82516C6.68047 7.76405 6.69436 7.70572 6.71658 7.65016L5.33325 6.26683L6.26658 5.3335L7.64992 6.71683C7.69436 6.70572 7.81103 6.68905 7.99992 6.66683C8.36658 6.66683 8.68047 6.79739 8.94159 7.0585C9.2027 7.31961 9.33325 7.6335 9.33325 8.00016C9.33325 8.36683 9.2027 8.68072 8.94159 8.94183C8.68047 9.20294 8.36658 9.3335 7.99992 9.3335Z" fill="#5E6166"/>
</g>
</svg>
