<svg width="16" height="16" viewBox="0 0 16 16" fill="none" xmlns="http://www.w3.org/2000/svg">
<mask id="mask0_1_171" style="mask-type:alpha" maskUnits="userSpaceOnUse" x="0" y="0" width="16" height="16">
<rect width="16" height="16" fill="#D9D9D9"/>
</mask>
<g mask="url(#mask0_1_171)">
<path d="M7.99992 14.6668C7.0777 14.6668 6.21103 14.4918 5.39992 14.1418C4.58881 13.7918 3.88325 13.3168 3.28325 12.7168C2.68325 12.1168 2.20825 11.4113 1.85825 10.6002C1.50825 9.78905 1.33325 8.92238 1.33325 8.00016C1.33325 7.07794 1.50825 6.21127 1.85825 5.40016C2.20825 4.58905 2.68325 3.8835 3.28325 3.2835C3.88325 2.6835 4.58881 2.2085 5.39992 1.8585C6.21103 1.5085 7.0777 1.3335 7.99992 1.3335C8.92214 1.3335 9.78881 1.5085 10.5999 1.8585C11.411 2.2085 12.1166 2.6835 12.7166 3.2835C13.3166 3.8835 13.7916 4.58905 14.1416 5.40016C14.4916 6.21127 14.6666 7.07794 14.6666 8.00016C14.6666 8.30016 14.6499 8.59461 14.6166 8.8835C14.5833 9.17238 14.5277 9.45572 14.4499 9.7335C14.2944 9.55572 14.1138 9.40572 13.9083 9.2835C13.7027 9.16127 13.4777 9.07794 13.2333 9.0335C13.2666 8.86683 13.2916 8.69738 13.3083 8.52516C13.3249 8.35294 13.3333 8.17794 13.3333 8.00016C13.3333 6.51127 12.8166 5.25016 11.7833 4.21683C10.7499 3.1835 9.48881 2.66683 7.99992 2.66683C6.51103 2.66683 5.24992 3.1835 4.21659 4.21683C3.18325 5.25016 2.66659 6.51127 2.66659 8.00016C2.66659 9.48905 3.18325 10.7502 4.21659 11.7835C5.24992 12.8168 6.51103 13.3335 7.99992 13.3335C8.56659 13.3335 9.10825 13.2502 9.62492 13.0835C10.1416 12.9168 10.6166 12.6835 11.0499 12.3835C11.1833 12.5724 11.3471 12.7391 11.5416 12.8835C11.736 13.0279 11.9444 13.1391 12.1666 13.2168C11.5999 13.6724 10.9638 14.0279 10.2583 14.2835C9.5527 14.5391 8.79992 14.6668 7.99992 14.6668ZM12.8333 12.0002C12.5999 12.0002 12.4027 11.9196 12.2416 11.7585C12.0805 11.5974 11.9999 11.4002 11.9999 11.1668C11.9999 10.9335 12.0805 10.7363 12.2416 10.5752C12.4027 10.4141 12.5999 10.3335 12.8333 10.3335C13.0666 10.3335 13.2638 10.4141 13.4249 10.5752C13.586 10.7363 13.6666 10.9335 13.6666 11.1668C13.6666 11.4002 13.586 11.5974 13.4249 11.7585C13.2638 11.9196 13.0666 12.0002 12.8333 12.0002ZM10.1999 11.1335L7.33325 8.26683V4.66683H8.66658V7.7335L11.1333 10.2002L10.1999 11.1335Z" fill="#5E6166"/>
</g>
</svg>
