<svg width="20" height="20" viewBox="0 0 20 20" fill="none" xmlns="http://www.w3.org/2000/svg">
<mask id="mask0_1_142" style="mask-type:alpha" maskUnits="userSpaceOnUse" x="0" y="0" width="20" height="20">
<rect width="20" height="20" fill="white"/>
</mask>
<g mask="url(#mask0_1_142)">
<path d="M4.10425 15.8957C3.35425 15.1318 2.7605 14.2464 2.323 13.2394C1.8855 12.2325 1.66675 11.1526 1.66675 9.99984C1.66675 8.83317 1.8855 7.74637 2.323 6.73942C2.7605 5.73248 3.35425 4.854 4.10425 4.104L5.29175 5.2915C4.68064 5.90262 4.20147 6.61095 3.85425 7.4165C3.50703 8.22206 3.33341 9.08317 3.33341 9.99984C3.33341 10.9304 3.50703 11.7984 3.85425 12.604C4.20147 13.4096 4.68064 14.1109 5.29175 14.7082L4.10425 15.8957ZM6.45841 13.5415C6.01397 13.0832 5.6598 12.5519 5.39591 11.9478C5.13203 11.3436 5.00008 10.6943 5.00008 9.99984C5.00008 9.2915 5.13203 8.63525 5.39591 8.03109C5.6598 7.42692 6.01397 6.90262 6.45841 6.45817L7.64591 7.64567C7.34036 7.95123 7.10078 8.30539 6.92716 8.70817C6.75355 9.11095 6.66675 9.5415 6.66675 9.99984C6.66675 10.4582 6.75355 10.8887 6.92716 11.2915C7.10078 11.6943 7.34036 12.0484 7.64591 12.354L6.45841 13.5415ZM10.0001 11.6665C9.54175 11.6665 9.14939 11.5033 8.823 11.1769C8.49661 10.8505 8.33341 10.4582 8.33341 9.99984C8.33341 9.5415 8.49661 9.14914 8.823 8.82275C9.14939 8.49636 9.54175 8.33317 10.0001 8.33317C10.4584 8.33317 10.8508 8.49636 11.1772 8.82275C11.5036 9.14914 11.6667 9.5415 11.6667 9.99984C11.6667 10.4582 11.5036 10.8505 11.1772 11.1769C10.8508 11.5033 10.4584 11.6665 10.0001 11.6665ZM13.5417 13.5415L12.3542 12.354C12.6598 12.0484 12.8994 11.6943 13.073 11.2915C13.2466 10.8887 13.3334 10.4582 13.3334 9.99984C13.3334 9.5415 13.2466 9.11095 13.073 8.70817C12.8994 8.30539 12.6598 7.95123 12.3542 7.64567L13.5417 6.45817C13.9862 6.90262 14.3404 7.42692 14.6042 8.03109C14.8681 8.63525 15.0001 9.2915 15.0001 9.99984C15.0001 10.6943 14.8681 11.3436 14.6042 11.9478C14.3404 12.5519 13.9862 13.0832 13.5417 13.5415ZM15.8959 15.8957L14.7084 14.7082C15.3195 14.0971 15.7987 13.3887 16.1459 12.5832C16.4931 11.7776 16.6667 10.9165 16.6667 9.99984C16.6667 9.06928 16.4931 8.20123 16.1459 7.39567C15.7987 6.59012 15.3195 5.88873 14.7084 5.2915L15.8959 4.104C16.6459 4.854 17.2397 5.73248 17.6772 6.73942C18.1147 7.74637 18.3334 8.83317 18.3334 9.99984C18.3334 11.1526 18.1147 12.2325 17.6772 13.2394C17.2397 14.2464 16.6459 15.1318 15.8959 15.8957Z" fill="#5E6166"/>
</g>
</svg>
