<?xml version="1.0" encoding="UTF-8"?>
<svg version="1.1" xmlns="http://www.w3.org/2000/svg" width="322" height="340">
<path d="M0 0 C0.80354919 -0.00045319 1.60709839 -0.00090637 2.43499756 -0.00137329 C20.26271129 0.02800601 36.91074216 2.50760926 54.0625 7.375 C54.0625 11.57729939 53.8977113 12.09196491 51.52734375 15.21875 C50.97312744 15.95963867 50.41891113 16.70052734 49.84790039 17.46386719 C48.9331897 18.65737793 48.9331897 18.65737793 48 19.875 C47.3702124 20.71450195 46.7404248 21.55400391 46.09155273 22.41894531 C43.46886975 25.9098022 40.82230987 29.38203548 38.16894531 32.84960938 C1.88690592 80.26734073 -22.52940152 132.23014367 -41.9375 188.375 C-63.7175 188.375 -85.4975 188.375 -107.9375 188.375 C-108.3217973 168.48578905 -108.63470041 148.59959921 -108.81830692 128.70761395 C-108.90583876 119.47063149 -109.02507663 110.23612497 -109.2199707 101.00073242 C-109.38983643 92.94748737 -109.49918276 84.89603527 -109.53700441 76.84104854 C-109.5591065 72.57784069 -109.6107076 68.31975978 -109.73491096 64.05820274 C-110.46078856 38.16995554 -110.46078856 38.16995554 -106.28540993 31.89030266 C-102.40346893 28.08925023 -98.0856938 25.89097545 -92.99390984 24.11082935 C-90.11682798 23.08134523 -87.53454506 21.60447316 -84.87890625 20.10546875 C-83.09330907 19.24239242 -81.30031632 18.39443703 -79.5 17.5625 C-78.53046387 17.1080249 -77.56092773 16.6535498 -76.56201172 16.18530273 C-52.23998611 5.01523167 -26.70037349 -0.05899682 0 0 Z " fill="#FFFFFF" transform="translate(107.9375,151.625)"/>
<path d="M0 0 C16.59988219 2.43464939 37.88140913 25.48148693 48 38 C48.83015625 39.00417969 49.6603125 40.00835937 50.515625 41.04296875 C72.37332511 67.85564909 86.06742904 99.37834077 90.8125 133.625 C90.93657227 134.49342529 91.06064453 135.36185059 91.18847656 136.2565918 C92.31508259 145.30018076 92 153.67732257 92 163 C43.16 163 -5.68 163 -56 163 C-50.13540593 127.81243557 -50.13540593 127.81243557 -47.4375 117.375 C-47.27692108 116.74297668 -47.11634216 116.11095337 -46.95089722 115.45977783 C-23.46113363 23.46113363 -23.46113363 23.46113363 0 0 Z " fill="#FFFFFF" transform="translate(200,177)"/>
<path d="M0 0 C1 1 1 1 1.13793659 2.96670723 C1.129166 8.76395762 0.72206457 14.32984324 -0.14575195 20.05810547 C-0.32871826 21.32349907 -0.32871826 21.32349907 -0.51538086 22.61445618 C-0.91552094 25.36652565 -1.32630405 28.11686697 -1.73828125 30.8671875 C-2.02285346 32.79383042 -2.30712486 34.7205178 -2.59111023 36.64724731 C-3.18553179 40.66728777 -3.78562745 44.68643259 -4.3894043 48.70507812 C-5.16232391 53.85464227 -5.91775868 59.00660396 -6.66863728 64.15942192 C-7.24986878 68.13086953 -7.84187503 72.1006548 -8.43700218 76.07004166 C-8.72017881 77.96970064 -8.99962699 79.86991932 -9.27526283 81.7706871 C-9.66101655 84.42169611 -10.0616098 87.07005055 -10.46606445 89.71826172 C-10.63222511 90.89339577 -10.63222511 90.89339577 -10.80174255 92.0922699 C-11.43717517 96.14015774 -12.14444675 98.98528598 -15 102 C-20.65738399 101.29224208 -25.838649 99.53158302 -31.21875 97.7265625 C-32.68290344 97.23994644 -32.68290344 97.23994644 -34.17663574 96.74349976 C-36.23486908 96.05810073 -38.29235064 95.37044053 -40.34912109 94.68066406 C-43.48705822 93.62933599 -46.62807479 92.58763308 -49.76953125 91.546875 C-51.77363011 90.87818114 -53.77754274 90.20892885 -55.78125 89.5390625 C-56.71578003 89.22957672 -57.65031006 88.92009094 -58.61315918 88.60122681 C-63.28222938 87.02816661 -67.66529815 85.34751533 -72 83 C-67.65786299 76.92100818 -62.86737209 71.32580477 -57.95678711 65.70727539 C-53.96244046 61.1307154 -50.07854727 56.48086101 -46.2578125 51.7578125 C-44.58364275 49.71289236 -42.89463398 47.68987695 -41.1796875 45.6796875 C-40.69322754 45.10943848 -40.20676758 44.53918945 -39.70556641 43.95166016 C-38.77016544 42.85811022 -37.8325231 41.76647138 -36.89208984 40.67724609 C-33.69121641 36.9339727 -30.82066633 33.03822015 -28 29 C-28.93199219 29.81082031 -29.86398437 30.62164063 -30.82421875 31.45703125 C-37.56544282 37.31474438 -44.3253314 43.14687957 -51.15307617 48.90356445 C-55.11928397 52.24916386 -59.06362476 55.6193675 -63 59 C-67.72122868 63.0510123 -72.44681759 67.09675913 -77.1875 71.125 C-77.99864258 71.81722656 -77.99864258 71.81722656 -78.82617188 72.5234375 C-81.15567711 74.49890554 -83.45419327 76.30279552 -86 78 C-93.18845773 76.85525055 -99.95770195 74.46189944 -106.8125 72.0625 C-107.83537109 71.71509766 -108.85824219 71.36769531 -109.91210938 71.00976562 C-110.89630859 70.66751953 -111.88050781 70.32527344 -112.89453125 69.97265625 C-113.77987549 69.66593994 -114.66521973 69.35922363 -115.57739258 69.04321289 C-118.05136289 67.97788233 -119.9227832 66.70129638 -122 65 C-121.85205078 62.70922852 -121.85205078 62.70922852 -121 60 C-118.58935547 58.24584961 -118.58935547 58.24584961 -115.3671875 56.65234375 C-114.78771362 56.35924316 -114.20823975 56.06614258 -113.61120605 55.76416016 C-111.70692713 54.80538888 -109.7913635 53.87184801 -107.875 52.9375 C-106.54283713 52.27150036 -105.21162671 51.60359237 -103.88134766 50.93383789 C-101.19143921 49.58130887 -98.4977489 48.23683154 -95.80078125 46.8984375 C-90.61941503 44.32005706 -85.49671758 41.63196086 -80.375 38.9375 C-78.51860366 37.96673144 -76.66182813 36.99668767 -74.8046875 36.02734375 C-73.40041504 35.29427002 -73.40041504 35.29427002 -71.96777344 34.54638672 C-66.48318575 31.68858988 -60.99124254 28.84498218 -55.5 26 C-46.87123134 21.52805755 -38.24463453 17.05202643 -29.625 12.5625 C-28.67826416 12.07104492 -27.73152832 11.57958984 -26.75610352 11.07324219 C-22.77199511 8.99913825 -18.80364977 6.91194576 -14.89453125 4.69921875 C-13.75371094 4.05597656 -12.61289062 3.41273437 -11.4375 2.75 C-10.50808594 2.20859375 -9.57867187 1.6671875 -8.62109375 1.109375 C-5.55314666 -0.18913018 -3.3001562 -0.28408805 0 0 Z " fill="#FFFFFF" transform="translate(321,0)"/>
<path d="M0 0 C3.17990746 0.58545279 6.16446239 1.31854758 9.20703125 2.41015625 C10.33334961 2.81137695 10.33334961 2.81137695 11.48242188 3.22070312 C12.25134766 3.49849609 13.02027344 3.77628906 13.8125 4.0625 C14.60076172 4.34416016 15.38902344 4.62582031 16.20117188 4.91601562 C18.13522289 5.60758538 20.06776488 6.30337278 22 7 C20.03067533 10.02112307 18.01812107 13.01129952 16 16 C15.3503125 16.99386719 14.700625 17.98773438 14.03125 19.01171875 C13.3609375 19.99785156 12.690625 20.98398438 12 22 C11.38125 22.928125 10.7625 23.85625 10.125 24.8125 C7.4605668 27.55529888 5.78040425 27.9178173 2 28 C0 26 0 26 -0.22705078 23.38623047 C-0.21657715 22.30744629 -0.20610352 21.22866211 -0.1953125 20.1171875 C-0.18886719 18.95058594 -0.18242187 17.78398438 -0.17578125 16.58203125 C-0.15902344 15.35871094 -0.14226562 14.13539062 -0.125 12.875 C-0.11597656 11.64394531 -0.10695312 10.41289063 -0.09765625 9.14453125 C-0.07402548 6.09616185 -0.04108054 3.04817618 0 0 Z " fill="#FFFFFF" transform="translate(244,89)"/>
</svg>
