<svg width="16" height="16" viewBox="0 0 16 16" fill="none" xmlns="http://www.w3.org/2000/svg">
<path d="M12.2938 12.1281C12.2809 11.9766 12.2685 11.842 12.2548 11.7172C12.8647 10.7917 13.2019 9.69812 13.2019 8.57562C13.2019 7.07346 12.6308 5.59296 11.6352 4.51384C11.436 4.29793 11.3119 4.04703 11.2762 3.7879C11.2648 3.70509 11.2699 3.67593 11.2699 3.67559C11.2854 3.61243 11.3166 3.54424 11.3677 3.46099C12.0229 2.39696 11.4536 1.37403 11.0559 0.858963C10.9623 0.737744 10.8017 0.690213 10.6572 0.740557C10.5136 0.790494 10.4183 0.926026 10.4201 1.0779C10.4264 1.58278 9.95915 2.09674 9.81587 2.24215C9.74387 2.31515 9.65197 2.41518 9.57984 2.54221C9.54387 2.60581 9.52575 2.68078 9.52284 2.77762C9.52268 2.78049 9.5224 2.78921 9.50128 2.79643C9.35703 2.7469 9.23175 2.7344 9.11909 2.75762C8.9545 2.79149 8.78993 2.86046 8.61584 2.96859C8.44921 3.07221 8.08393 3.23371 7.50868 3.14987C7.36003 3.12818 7.21646 3.19287 7.13362 3.31849C7.05025 3.44493 7.04734 3.60362 7.12637 3.73284C7.34825 4.09518 7.86437 4.69418 8.82359 4.63399C8.9504 4.62603 9.06609 4.61984 9.17171 4.61506C9.50021 4.60112 9.81015 4.76806 9.975 5.05349C10.0136 5.12028 10.0447 5.17103 10.0637 5.20228L10.0782 5.22596C10.6962 6.27331 10.8282 7.0824 10.4596 7.56581C10.2662 7.81946 9.92415 7.95065 9.56709 7.90834C7.19712 7.62771 6.01565 5.45493 5.52215 4.18474C5.436 3.96281 5.25687 3.79412 5.03062 3.72196C4.80531 3.65012 4.56228 3.68368 4.36431 3.81421C2.78978 4.85309 1.8494 6.55665 1.80112 8.42287C1.79781 8.54128 1.79803 8.65981 1.80215 8.77834C1.85706 10.3601 2.58537 11.7994 3.70571 12.8087C3.73721 12.8459 3.75846 12.868 3.76343 12.8729C3.78384 12.8931 3.80721 12.9079 3.83181 12.9195C4.7304 13.6834 5.86231 14.1781 7.09525 14.2633C7.2325 14.2729 7.36906 14.2776 7.5049 14.2776C7.51409 14.2776 7.52318 14.277 7.53237 14.2769C7.61787 14.2765 7.70315 14.2746 7.78803 14.2705C7.81393 14.2692 7.83962 14.2667 7.8655 14.2651C7.93543 14.2607 8.00528 14.2559 8.07472 14.2491C8.09622 14.2469 8.11753 14.2439 8.139 14.2416C8.215 14.2332 8.29068 14.2238 8.366 14.2124C8.37803 14.2106 8.39 14.2084 8.40196 14.2065C8.77946 14.1472 9.14693 14.0487 9.50162 13.9158C9.98431 14.1555 10.519 14.2776 11.1039 14.2776C11.5952 14.2776 12.1215 14.1928 12.6802 14.0233C12.8046 13.9856 12.8996 13.8885 12.9341 13.7635C12.9686 13.6387 12.9368 13.5066 12.8492 13.4104C12.6654 13.2085 12.3492 12.7736 12.2938 12.1281ZM6.33696 7.17799C6.55428 7.17799 6.73043 7.35415 6.73043 7.57146C6.73043 7.78878 6.55428 7.96496 6.33696 7.96496C6.11968 7.96496 5.9435 7.78878 5.9435 7.57146C5.94353 7.35415 6.11968 7.17799 6.33696 7.17799ZM8.01721 13.7057C7.45112 13.5864 5.89115 13.0562 5.12287 10.775C5.07959 10.6462 4.94056 10.5769 4.81103 10.6202C4.68215 10.6637 4.61293 10.8033 4.65634 10.9322C5.16325 12.4373 5.99443 13.2562 6.72381 13.7021C5.75378 13.5753 4.86556 13.1698 4.14481 12.5677C4.13478 12.5517 4.12334 12.5362 4.10928 12.5224C4.10171 12.5149 3.34903 11.7497 3.26343 9.72593C3.25778 9.59006 3.14581 9.4839 3.00709 9.49034C2.87118 9.49615 2.76584 9.61087 2.77162 9.74668C2.79437 10.2847 2.8629 10.7422 2.9534 11.1293C2.605 10.5039 2.38434 9.79912 2.33097 9.05012C2.27143 8.21506 2.41675 7.42068 2.7189 6.70884C2.79725 6.52418 2.96243 6.38446 3.16096 6.35565C3.17609 6.35346 3.1914 6.35153 3.20687 6.34987C3.42237 6.32671 3.63846 6.37409 3.83012 6.47531C4.17743 6.65871 4.76421 7.09871 5.33018 8.12556C5.33018 8.12556 6.21315 10.0257 7.15909 10.4382C7.32465 11.1971 7.77125 12.6307 8.8804 13.5194C8.60212 13.6055 8.31368 13.6685 8.01721 13.7057Z" fill="#5E6166"/>
</svg>
